<svg xmlns="http://www.w3.org/2000/svg" viewBox="0 0 640 360" fill="none">
  <defs>
    <linearGradient id="dashBg" x1="64" x2="512" y1="30" y2="312" gradientUnits="userSpaceOnUse">
      <stop stop-color="#081823"/>
      <stop offset=".58" stop-color="#102434"/>
      <stop offset="1" stop-color="#07121B"/>
    </linearGradient>
    <radialGradient id="dashGlow" cx="0" cy="0" r="1" gradientTransform="matrix(0 112 -236 0 476 92)" gradientUnits="userSpaceOnUse">
      <stop stop-color="#8FC8FF" stop-opacity=".42"/>
      <stop offset=".5" stop-color="#7CF4DC" stop-opacity=".16"/>
      <stop offset="1" stop-color="#7CF4DC" stop-opacity="0"/>
    </radialGradient>
  </defs>
  <rect width="640" height="360" rx="28" fill="url(#dashBg)"/>
  <ellipse cx="476" cy="92" fill="url(#dashGlow)" rx="236" ry="112"/>
  <path d="M68 228c96-84 214-122 390-118" opacity=".82" stroke="#8FC8FF" stroke-linecap="round" stroke-width="4"/>
  <path d="M92 280c114-70 234-95 432-88" stroke="#7CF4DC" stroke-linecap="round" stroke-width="5"/>
  <path d="M90 292h456" opacity=".16" stroke="#DFFEFF"/>
  <path d="M164 292c16-62 53-106 110-130 53-23 118-23 184-1" opacity=".12" stroke="#DFFEFF" stroke-width="1.8"/>
  <circle cx="474" cy="100" r="13" fill="#DFFEFF"/>
  <circle cx="474" cy="100" r="34" opacity=".22" stroke="#DFFEFF"/>
  <circle cx="474" cy="100" r="76" opacity=".12" stroke="#DFFEFF"/>
  <rect x="112" y="108" width="132" height="88" rx="22" fill="rgba(255,255,255,0.03)" stroke="rgba(223,254,255,0.14)"/>
  <rect x="266" y="142" width="146" height="94" rx="22" fill="rgba(255,255,255,0.04)" stroke="rgba(223,254,255,0.14)"/>
  <rect x="434" y="170" width="100" height="72" rx="22" fill="rgba(255,255,255,0.04)" stroke="rgba(223,254,255,0.14)"/>
  <circle cx="180" cy="140" r="3" fill="#7CF4DC"/>
  <circle cx="204" cy="124" r="2.5" fill="#DFFEFF"/>
</svg>
